<?xml version="1.0" standalone="no"?>
<!DOCTYPE svg PUBLIC "-//W3C//DTD SVG 20010904//EN"
 "http://www.w3.org/TR/2001/REC-SVG-20010904/DTD/svg10.dtd">
<svg version="1.0" xmlns="http://www.w3.org/2000/svg"
 width="1024.000000pt" height="1024.000000pt" viewBox="0 0 1024.000000 1024.000000"
 preserveAspectRatio="xMidYMid meet">
<metadata>
Created by potrace 1.14, written by Peter Selinger 2001-2017
</metadata>
<g transform="translate(0.000000,1024.000000) scale(0.100000,-0.100000)"
fill="#000000" stroke="none">
<path d="M6900 10224 c-76 -20 -73 -19 -95 -31 -11 -6 -24 -12 -30 -13 -37 -8
-148 -84 -214 -148 -9 -9 -42 -38 -72 -64 -66 -57 -92 -79 -145 -126 -23 -20
-65 -57 -94 -82 -29 -25 -68 -60 -86 -77 -19 -18 -37 -33 -40 -33 -2 0 -20
-16 -40 -35 -19 -19 -37 -35 -39 -35 -2 0 -17 -12 -33 -27 -33 -31 -123 -111
-162 -143 -14 -12 -44 -38 -66 -58 -23 -20 -66 -58 -95 -83 -30 -26 -66 -57
-80 -70 -14 -13 -50 -45 -80 -71 -30 -26 -70 -61 -89 -78 -19 -17 -52 -45 -73
-63 -21 -18 -58 -50 -81 -72 -24 -22 -65 -58 -92 -80 -26 -22 -66 -56 -88 -76
-109 -96 -157 -138 -215 -189 -35 -30 -69 -59 -75 -65 -6 -5 -47 -41 -91 -80
-44 -38 -82 -72 -85 -75 -3 -3 -36 -32 -75 -65 -38 -33 -85 -73 -104 -90 -18
-16 -43 -39 -56 -50 -12 -11 -38 -33 -57 -50 -19 -16 -66 -57 -103 -90 -37
-33 -77 -68 -89 -78 -12 -11 -40 -35 -64 -55 -24 -20 -63 -54 -86 -77 -24 -22
-63 -56 -87 -77 -49 -40 -75 -63 -135 -116 -46 -40 -108 -95 -254 -222 -123
-107 -228 -200 -252 -222 -10 -10 -20 -18 -22 -18 -2 0 -20 -15 -38 -32 -19
-18 -58 -53 -87 -78 -75 -64 -71 -60 -132 -115 -30 -27 -83 -75 -118 -105 -36
-30 -74 -63 -85 -73 -12 -10 -43 -37 -69 -60 -27 -23 -61 -53 -76 -67 -14 -14
-53 -47 -85 -75 -33 -27 -82 -70 -109 -95 -28 -25 -61 -54 -73 -65 -12 -11
-42 -36 -65 -55 -24 -19 -50 -42 -58 -50 -9 -9 -47 -43 -86 -75 -38 -33 -74
-65 -80 -71 -5 -5 -44 -39 -85 -75 -69 -59 -106 -91 -165 -144 -12 -11 -47
-41 -77 -67 -30 -26 -66 -58 -80 -70 -14 -13 -54 -48 -89 -78 -100 -86 -219
-209 -219 -228 0 -4 -6 -14 -12 -20 -7 -7 -13 -16 -14 -20 0 -4 -11 -29 -23
-57 -50 -111 -62 -249 -34 -385 15 -69 87 -230 103 -230 6 0 10 -6 10 -13 0
-15 96 -110 145 -143 45 -31 125 -74 125 -68 0 4 6 2 12 -4 19 -15 88 -32 152
-36 30 -3 59 -7 64 -10 4 -2 14 -1 22 4 7 4 24 4 36 0 14 -6 26 -5 29 0 3 5
18 5 35 0 17 -5 30 -6 30 -2 0 4 16 7 35 7 19 0 35 -3 35 -7 0 -4 13 -3 28 2
16 4 35 4 43 -1 8 -4 21 -4 29 1 7 4 24 4 36 0 14 -6 26 -5 29 0 3 5 18 5 35
0 17 -5 30 -6 30 -2 0 8 86 6 99 -3 5 -3 12 -1 15 4 4 5 18 6 34 2 15 -4 38
-5 52 -1 14 4 37 3 53 -1 15 -4 27 -5 27 -1 0 4 16 7 35 7 19 0 35 -3 35 -7 0
-4 13 -3 30 2 17 5 32 5 35 0 3 -5 15 -6 28 -1 13 5 30 5 38 1 8 -5 21 -5 28
0 8 4 27 4 42 0 16 -5 29 -6 29 -2 0 4 16 7 35 7 19 0 35 -3 35 -7 0 -4 13 -3
29 2 16 4 32 5 35 2 7 -7 137 -5 144 2 2 3 15 1 28 -4 13 -5 26 -6 29 0 3 5
18 5 35 0 17 -5 30 -6 30 -2 0 4 16 7 35 7 19 0 35 -3 35 -7 0 -4 13 -3 28 2
16 4 35 4 43 -1 8 -4 21 -4 29 1 7 4 24 4 36 0 14 -6 26 -5 29 0 3 5 18 5 35
0 17 -5 30 -6 30 -2 0 8 86 6 99 -3 5 -3 12 -1 15 4 4 5 18 6 34 2 15 -4 38
-5 52 -1 14 4 37 3 51 -1 15 -4 32 -3 39 1 7 4 26 4 41 0 16 -5 31 -5 34 0 3
5 19 5 35 0 16 -5 32 -5 34 -1 3 4 19 6 36 3 34 -5 38 -20 16 -60 -25 -46
-176 -407 -176 -420 0 -7 -4 -12 -10 -12 -5 0 -10 -5 -10 -12 0 -11 -112 -277
-166 -396 -13 -29 -24 -55 -24 -57 0 -3 -9 -24 -19 -48 -54 -117 -137 -314
-141 -332 -1 -5 -8 -21 -15 -35 -14 -26 -16 -30 -90 -205 -25 -60 -55 -127
-65 -150 -10 -22 -30 -69 -45 -105 -15 -36 -33 -78 -40 -95 -7 -16 -15 -34
-16 -40 -2 -5 -22 -53 -46 -105 -24 -52 -43 -101 -43 -107 0 -7 -5 -13 -10
-13 -6 0 -9 -3 -8 -7 2 -5 -14 -47 -34 -94 -40 -92 -60 -141 -63 -149 -1 -3
-10 -25 -22 -50 -11 -25 -40 -90 -63 -145 -23 -55 -50 -118 -60 -140 -39 -87
-125 -290 -125 -295 0 -3 -10 -25 -21 -50 -12 -25 -41 -90 -64 -145 -23 -55
-51 -119 -61 -142 -11 -23 -19 -44 -19 -47 0 -2 -16 -39 -35 -80 -19 -42 -35
-83 -35 -90 0 -8 -5 -18 -11 -21 -6 -4 -8 -13 -5 -20 2 -7 2 -16 -2 -19 -19
-20 -23 -213 -6 -294 22 -108 84 -221 167 -305 64 -64 177 -148 177 -130 0 3
9 -2 21 -13 12 -10 24 -18 28 -17 3 1 24 -3 46 -9 22 -6 47 -13 55 -15 36 -10
210 -12 241 -3 19 6 48 13 64 16 69 12 196 84 281 160 12 11 52 46 89 79 38
33 83 74 101 90 18 17 43 39 56 49 36 29 184 158 247 216 10 8 48 42 86 75 39
33 75 64 81 70 6 5 39 35 75 65 99 85 164 144 167 153 2 4 8 5 13 1 5 -3 9 -1
9 4 0 5 30 36 68 67 37 32 96 84 132 115 36 32 90 80 120 106 30 26 86 75 124
108 72 63 127 112 235 206 35 30 68 60 75 65 22 21 181 159 210 184 16 14 42
37 57 51 56 52 79 70 90 70 5 0 7 4 4 10 -3 5 -2 10 2 10 5 0 22 12 39 27 16
16 59 53 94 83 36 30 74 64 86 75 12 11 30 27 40 35 40 33 200 173 215 189 9
9 42 39 75 66 32 28 66 58 76 67 10 10 20 18 23 18 3 0 25 19 49 42 25 24 55
52 68 62 35 29 161 138 179 155 9 9 35 32 58 51 24 19 53 45 64 56 12 12 58
52 102 90 44 38 85 73 91 79 6 5 37 33 69 60 32 28 68 59 80 70 36 32 74 65
165 144 47 41 96 84 110 97 14 12 63 56 110 96 46 40 92 80 100 88 19 18 68
60 130 114 41 35 97 84 190 166 19 17 57 50 84 73 27 23 62 54 78 70 16 15 31
27 33 27 2 0 14 10 27 22 13 13 52 48 87 78 35 30 73 64 85 76 12 11 50 45 86
75 36 30 74 63 86 74 12 11 30 27 40 36 95 78 211 183 267 241 163 168 212
411 130 638 -9 25 -21 51 -26 58 -5 6 -7 12 -3 12 8 0 -41 87 -73 130 -103
138 -298 238 -459 236 -23 -1 -42 2 -42 6 0 4 -13 3 -28 -2 -16 -4 -35 -4 -43
1 -8 4 -21 4 -29 -1 -7 -4 -24 -4 -36 0 -14 6 -26 5 -29 0 -3 -5 -18 -5 -35 0
-17 5 -30 5 -30 0 0 -4 -15 -5 -32 -1 -18 4 -48 4 -66 0 -18 -3 -35 -3 -38 2
-2 4 -15 4 -28 -1 -12 -4 -29 -4 -36 0 -8 5 -21 5 -29 1 -8 -5 -26 -5 -41 -1
-15 4 -33 4 -41 0 -7 -5 -17 -6 -21 -4 -5 3 -34 5 -66 5 -31 -1 -66 -1 -77 0
-11 0 -26 0 -32 0 -31 -2 -40 -2 -68 -2 -29 1 -47 1 -82 1 -10 0 -34 0 -53 1
-19 0 -42 0 -50 0 -8 -1 -24 -1 -35 -1 -11 1 -26 1 -32 1 -31 -2 -40 -2 -68
-2 -16 1 -38 1 -47 1 -10 0 -24 0 -30 0 -7 1 -38 0 -69 -1 -31 -1 -60 1 -66 4
-5 3 -15 2 -22 -3 -8 -4 -27 -4 -42 0 -16 5 -29 5 -29 0 0 -4 -15 -5 -32 -1
-18 4 -48 4 -65 0 -18 -3 -33 -3 -33 2 0 4 -13 4 -28 -1 -16 -4 -35 -4 -43 1
-8 4 -21 4 -28 -1 -8 -4 -27 -4 -42 0 -16 5 -29 5 -29 1 0 -5 -15 -5 -32 -2
-18 4 -48 4 -65 0 -18 -4 -33 -3 -33 1 0 5 -12 5 -27 1 -16 -4 -41 -4 -58 -1
-16 3 -45 3 -62 -1 -18 -4 -33 -3 -33 1 0 5 -13 5 -28 0 -16 -4 -35 -4 -43 1
-8 4 -21 4 -29 -1 -7 -4 -23 -5 -34 0 -12 4 -24 8 -28 9 -5 0 -8 2 -9 4 -1 5
52 134 95 229 13 29 70 161 126 293 56 132 108 254 115 270 7 17 14 32 14 35
0 3 21 50 46 105 25 55 45 106 45 113 0 6 4 12 8 12 5 0 9 6 9 13 0 6 15 44
33 82 18 39 33 75 35 80 1 6 8 24 15 40 7 17 14 32 15 35 0 3 8 19 18 36 9 17
13 34 10 38 -4 3 -1 6 5 6 7 0 12 6 12 14 0 7 14 44 31 82 29 63 50 112 54
124 4 12 25 61 53 123 17 37 32 71 33 75 1 4 12 31 25 61 13 29 24 60 24 67 0
8 5 14 10 14 6 0 10 5 10 12 0 11 45 118 205 488 34 80 79 186 100 235 21 50
51 119 68 155 16 36 30 70 32 75 1 6 10 28 19 50 10 22 24 54 31 70 7 17 22
51 34 77 11 26 21 50 21 53 0 2 11 28 24 57 67 146 133 307 128 312 -3 3 0 6
5 6 14 0 62 149 68 210 2 25 5 47 6 50 1 3 1 8 1 11 -1 3 -3 33 -6 66 -6 76
-23 147 -42 184 -8 16 -12 29 -10 29 6 0 -46 90 -64 113 -46 58 -113 123 -162
157 -32 22 -60 40 -62 40 -2 0 -21 8 -42 17 -22 9 -42 18 -46 19 -5 1 -9 2
-10 3 -2 2 -14 5 -28 8 -41 8 -55 11 -55 13 0 10 -211 5 -255 -6z"/>
</g>
</svg>
